<mxfile host="65bd71144e">
    <diagram id="7ufo_i_MTrv_OuP318Px" name="Page-1">
        <mxGraphModel dx="4260" dy="5044" grid="0" gridSize="10" guides="1" tooltips="1" connect="1" arrows="1" fold="1" page="0" pageScale="1" pageWidth="850" pageHeight="1100" background="#ffffff" math="0" shadow="0">
            <root>
                <mxCell id="0"/>
                <mxCell id="1" parent="0"/>
                <mxCell id="130" value="" style="swimlane;startSize=0;" parent="1" vertex="1">
                    <mxGeometry x="1191" y="-1999" width="489" height="522" as="geometry"/>
                </mxCell>
                <mxCell id="131" value="ваши ставки, господа, глаз мой радуют всегда&lt;span style=&quot;color: rgba(0, 0, 0, 0); font-family: monospace; font-size: 0px; text-align: start;&quot;&gt;%3CmxGraphModel%3E%3Croot%3E%3CmxCell%20id%3D%220%22%2F%3E%3CmxCell%20id%3D%221%22%20parent%3D%220%22%2F%3E%3CmxCell%20id%3D%222%22%20value%3D%22%26lt%3Bspan%20style%3D%26quot%3Bfont-weight%3A%20normal%3B%26quot%3B%26gt%3B%D0%BE%D1%82%D0%BC%D0%B5%D1%87%D0%B5%D0%BD%D0%B0%20%D0%BF%D1%80%D0%BE%D0%B2%D0%B0%D0%BB%D0%B5%D0%BD%D0%BD%D0%BE%D0%B9%20%D0%BF%D1%80%D0%BE%D1%82%D1%83%D1%85%D1%88%D0%B0%D1%8F%20%D0%B7%D0%B0%D0%B4%D0%B0%D1%87%D0%B0%26lt%3B%2Fspan%26gt%3B%22%20style%3D%22whiteSpace%3Dwrap%3Bhtml%3D1%3Baspect%3Dfixed%3BfillColor%3D%23fa6800%3BfontColor%3D%23000000%3BstrokeColor%3D%23C73500%3BfontStyle%3D1%22%20vertex%3D%221%22%20parent%3D%221%22%3E%3CmxGeometry%20x%3D%22-151%22%20y%3D%22-830%22%20width%3D%2280%22%20height%3D%2280%22%20as%3D%22geometry%22%2F%3E%3C%2FmxCell%3E%3C%2Froot%3E%3C%2FmxGraphModel%3EЮ&lt;/span&gt;" style="text;html=1;align=center;verticalAlign=middle;resizable=0;points=[];autosize=1;strokeColor=none;fillColor=none;" parent="130" vertex="1">
                    <mxGeometry x="96" y="26" width="275" height="26" as="geometry"/>
                </mxCell>
                <mxCell id="173" value="" style="edgeStyle=none;html=1;" edge="1" parent="130" source="168" target="171">
                    <mxGeometry relative="1" as="geometry"/>
                </mxCell>
                <mxCell id="174" value="has_many" style="edgeLabel;html=1;align=center;verticalAlign=middle;resizable=0;points=[];" vertex="1" connectable="0" parent="173">
                    <mxGeometry x="-0.4715" y="-1" relative="1" as="geometry">
                        <mxPoint as="offset"/>
                    </mxGeometry>
                </mxCell>
                <mxCell id="168" value="Manager" style="rounded=0;whiteSpace=wrap;html=1;fillColor=#d5e8d4;strokeColor=#82b366;" vertex="1" parent="130">
                    <mxGeometry x="177" y="75" width="120" height="60" as="geometry"/>
                </mxCell>
                <mxCell id="169" value="Order" style="rounded=0;whiteSpace=wrap;html=1;fillColor=#d5e8d4;strokeColor=#82b366;" vertex="1" parent="130">
                    <mxGeometry x="169" y="341" width="120" height="60" as="geometry"/>
                </mxCell>
                <mxCell id="175" value="" style="edgeStyle=none;html=1;" edge="1" parent="130" source="171" target="169">
                    <mxGeometry relative="1" as="geometry"/>
                </mxCell>
                <mxCell id="176" value="has_one" style="edgeLabel;html=1;align=center;verticalAlign=middle;resizable=0;points=[];" vertex="1" connectable="0" parent="175">
                    <mxGeometry x="-0.7067" relative="1" as="geometry">
                        <mxPoint as="offset"/>
                    </mxGeometry>
                </mxCell>
                <mxCell id="171" value="Bet" style="rounded=0;whiteSpace=wrap;html=1;" vertex="1" parent="130">
                    <mxGeometry x="173.5" y="210" width="120" height="60" as="geometry"/>
                </mxCell>
                <mxCell id="177" value="- condition" style="rounded=1;whiteSpace=wrap;html=1;" vertex="1" parent="130">
                    <mxGeometry x="283" y="214" width="120" height="60" as="geometry"/>
                </mxCell>
                <mxCell id="178" value="- status" style="rounded=1;whiteSpace=wrap;html=1;" vertex="1" parent="130">
                    <mxGeometry x="281" y="341" width="120" height="60" as="geometry"/>
                </mxCell>
                <mxCell id="132" value="" style="swimlane;startSize=0;" parent="1" vertex="1">
                    <mxGeometry x="-1170" y="-1879" width="690" height="504" as="geometry"/>
                </mxCell>
                <mxCell id="133" value="подбор котов на вакансии" style="text;html=1;align=center;verticalAlign=middle;resizable=0;points=[];autosize=1;strokeColor=none;fillColor=none;" parent="132" vertex="1">
                    <mxGeometry x="94" y="45" width="163" height="26" as="geometry"/>
                </mxCell>
                <mxCell id="238" style="edgeStyle=none;html=1;exitX=1;exitY=0.5;exitDx=0;exitDy=0;entryX=0;entryY=0.25;entryDx=0;entryDy=0;" edge="1" parent="132" source="232" target="235">
                    <mxGeometry relative="1" as="geometry"/>
                </mxCell>
                <mxCell id="239" value="has many" style="edgeLabel;html=1;align=center;verticalAlign=middle;resizable=0;points=[];" vertex="1" connectable="0" parent="238">
                    <mxGeometry x="-0.4844" y="2" relative="1" as="geometry">
                        <mxPoint as="offset"/>
                    </mxGeometry>
                </mxCell>
                <mxCell id="241" style="edgeStyle=none;html=1;exitX=0.5;exitY=1;exitDx=0;exitDy=0;entryX=0.5;entryY=0;entryDx=0;entryDy=0;" edge="1" parent="132" source="232" target="240">
                    <mxGeometry relative="1" as="geometry"/>
                </mxCell>
                <mxCell id="242" value="has_many" style="edgeLabel;html=1;align=center;verticalAlign=middle;resizable=0;points=[];" vertex="1" connectable="0" parent="241">
                    <mxGeometry x="-0.5505" relative="1" as="geometry">
                        <mxPoint x="1" as="offset"/>
                    </mxGeometry>
                </mxCell>
                <mxCell id="232" value="Worker" style="rounded=0;whiteSpace=wrap;html=1;" vertex="1" parent="132">
                    <mxGeometry x="197" y="106" width="120" height="60" as="geometry"/>
                </mxCell>
                <mxCell id="236" style="edgeStyle=none;html=1;exitX=1;exitY=0.5;exitDx=0;exitDy=0;entryX=0;entryY=0.5;entryDx=0;entryDy=0;" edge="1" parent="132" source="234" target="235">
                    <mxGeometry relative="1" as="geometry"/>
                </mxCell>
                <mxCell id="237" value="has many" style="edgeLabel;html=1;align=center;verticalAlign=middle;resizable=0;points=[];" vertex="1" connectable="0" parent="236">
                    <mxGeometry x="0.3163" y="2" relative="1" as="geometry">
                        <mxPoint as="offset"/>
                    </mxGeometry>
                </mxCell>
                <mxCell id="243" style="edgeStyle=none;html=1;exitX=0.5;exitY=0;exitDx=0;exitDy=0;entryX=0.654;entryY=1.024;entryDx=0;entryDy=0;entryPerimeter=0;" edge="1" parent="132" source="234" target="240">
                    <mxGeometry relative="1" as="geometry"/>
                </mxCell>
                <mxCell id="244" value="has_many" style="edgeLabel;html=1;align=center;verticalAlign=middle;resizable=0;points=[];" vertex="1" connectable="0" parent="243">
                    <mxGeometry x="-0.5086" y="1" relative="1" as="geometry">
                        <mxPoint as="offset"/>
                    </mxGeometry>
                </mxCell>
                <mxCell id="234" value="Vacancy" style="rounded=0;whiteSpace=wrap;html=1;" vertex="1" parent="132">
                    <mxGeometry x="291" y="359" width="120" height="60" as="geometry"/>
                </mxCell>
                <mxCell id="235" value="Trial" style="rounded=0;whiteSpace=wrap;html=1;" vertex="1" parent="132">
                    <mxGeometry x="535" y="174" width="120" height="60" as="geometry"/>
                </mxCell>
                <mxCell id="240" value="Application" style="rounded=0;whiteSpace=wrap;html=1;" vertex="1" parent="132">
                    <mxGeometry x="240" y="240" width="120" height="60" as="geometry"/>
                </mxCell>
                <mxCell id="134" value="" style="swimlane;startSize=0;" parent="1" vertex="1">
                    <mxGeometry x="472" y="-2331" width="593" height="258" as="geometry"/>
                </mxCell>
                <mxCell id="135" value="работа склада" style="text;html=1;align=center;verticalAlign=middle;resizable=0;points=[];autosize=1;strokeColor=none;fillColor=none;" parent="134" vertex="1">
                    <mxGeometry x="194" y="34" width="99" height="26" as="geometry"/>
                </mxCell>
                <mxCell id="245" value="Order" style="rounded=0;whiteSpace=wrap;html=1;fillColor=#d5e8d4;strokeColor=#82b366;" vertex="1" parent="134">
                    <mxGeometry x="421" y="127" width="120" height="60" as="geometry"/>
                </mxCell>
                <mxCell id="248" style="edgeStyle=none;html=1;exitX=1;exitY=0.5;exitDx=0;exitDy=0;entryX=0;entryY=0.5;entryDx=0;entryDy=0;" edge="1" parent="134" source="247" target="245">
                    <mxGeometry relative="1" as="geometry"/>
                </mxCell>
                <mxCell id="249" value="has_many" style="edgeLabel;html=1;align=center;verticalAlign=middle;resizable=0;points=[];" vertex="1" connectable="0" parent="248">
                    <mxGeometry x="0.2644" y="-6" relative="1" as="geometry">
                        <mxPoint as="offset"/>
                    </mxGeometry>
                </mxCell>
                <mxCell id="247" value="WarehouseWorker" style="rounded=0;whiteSpace=wrap;html=1;" vertex="1" parent="134">
                    <mxGeometry x="118" y="127" width="120" height="60" as="geometry"/>
                </mxCell>
                <mxCell id="136" value="" style="swimlane;startSize=0;" parent="1" vertex="1">
                    <mxGeometry x="385" y="-722" width="1033" height="406" as="geometry"/>
                </mxCell>
                <mxCell id="137" value="отдел качества" style="text;html=1;align=center;verticalAlign=middle;resizable=0;points=[];autosize=1;strokeColor=none;fillColor=none;" parent="136" vertex="1">
                    <mxGeometry x="555" y="26" width="102" height="26" as="geometry"/>
                </mxCell>
                <mxCell id="187" style="edgeStyle=none;html=1;exitX=1;exitY=0.5;exitDx=0;exitDy=0;entryX=0;entryY=0.5;entryDx=0;entryDy=0;" edge="1" parent="136" source="179" target="186">
                    <mxGeometry relative="1" as="geometry"/>
                </mxCell>
                <mxCell id="188" value="Has many" style="edgeLabel;html=1;align=center;verticalAlign=middle;resizable=0;points=[];" vertex="1" connectable="0" parent="187">
                    <mxGeometry x="0.2757" y="-1" relative="1" as="geometry">
                        <mxPoint as="offset"/>
                    </mxGeometry>
                </mxCell>
                <mxCell id="179" value="Client" style="rounded=0;whiteSpace=wrap;html=1;fillColor=#d5e8d4;strokeColor=#82b366;" vertex="1" parent="136">
                    <mxGeometry x="120" y="79" width="120" height="60" as="geometry"/>
                </mxCell>
                <mxCell id="191" value="" style="edgeStyle=none;html=1;" edge="1" parent="136" source="184" target="185">
                    <mxGeometry relative="1" as="geometry"/>
                </mxCell>
                <mxCell id="192" value="has many" style="edgeLabel;html=1;align=center;verticalAlign=middle;resizable=0;points=[];" vertex="1" connectable="0" parent="191">
                    <mxGeometry x="-0.2847" y="-3" relative="1" as="geometry">
                        <mxPoint x="-13" y="-10" as="offset"/>
                    </mxGeometry>
                </mxCell>
                <mxCell id="184" value="Survey form" style="rounded=0;whiteSpace=wrap;html=1;" vertex="1" parent="136">
                    <mxGeometry x="806" y="88" width="120" height="60" as="geometry"/>
                </mxCell>
                <mxCell id="189" value="" style="edgeStyle=none;html=1;" edge="1" parent="136" source="185" target="186">
                    <mxGeometry relative="1" as="geometry"/>
                </mxCell>
                <mxCell id="190" value="has_many" style="edgeLabel;html=1;align=center;verticalAlign=middle;resizable=0;points=[];" vertex="1" connectable="0" parent="189">
                    <mxGeometry x="-0.4503" y="-3" relative="1" as="geometry">
                        <mxPoint x="-10" y="-8" as="offset"/>
                    </mxGeometry>
                </mxCell>
                <mxCell id="185" value="Question" style="rounded=0;whiteSpace=wrap;html=1;" vertex="1" parent="136">
                    <mxGeometry x="595" y="84" width="120" height="60" as="geometry"/>
                </mxCell>
                <mxCell id="186" value="Answer" style="rounded=0;whiteSpace=wrap;html=1;" vertex="1" parent="136">
                    <mxGeometry x="402" y="84" width="120" height="60" as="geometry"/>
                </mxCell>
                <mxCell id="138" value="" style="swimlane;startSize=0;" parent="1" vertex="1">
                    <mxGeometry x="-942" y="-864" width="1113" height="423" as="geometry"/>
                </mxCell>
                <mxCell id="139" value="выплаты и списания" style="text;html=1;align=center;verticalAlign=middle;resizable=0;points=[];autosize=1;strokeColor=none;fillColor=none;" parent="138" vertex="1">
                    <mxGeometry x="490.5" y="50" width="132" height="26" as="geometry"/>
                </mxCell>
                <mxCell id="199" style="edgeStyle=none;html=1;exitX=1;exitY=0.5;exitDx=0;exitDy=0;" edge="1" parent="138" source="194" target="196">
                    <mxGeometry relative="1" as="geometry"/>
                </mxCell>
                <mxCell id="200" value="has_many" style="edgeLabel;html=1;align=center;verticalAlign=middle;resizable=0;points=[];" vertex="1" connectable="0" parent="199">
                    <mxGeometry x="-0.5706" y="-3" relative="1" as="geometry">
                        <mxPoint as="offset"/>
                    </mxGeometry>
                </mxCell>
                <mxCell id="194" value="Client" style="rounded=0;whiteSpace=wrap;html=1;fillColor=#d5e8d4;strokeColor=#82b366;" vertex="1" parent="138">
                    <mxGeometry x="310" y="125" width="120" height="60" as="geometry"/>
                </mxCell>
                <mxCell id="214" style="edgeStyle=none;html=1;exitX=1;exitY=0.5;exitDx=0;exitDy=0;" edge="1" parent="138" source="195" target="213">
                    <mxGeometry relative="1" as="geometry"/>
                </mxCell>
                <mxCell id="215" value="has_many" style="edgeLabel;html=1;align=center;verticalAlign=middle;resizable=0;points=[];" vertex="1" connectable="0" parent="214">
                    <mxGeometry x="-0.2427" y="2" relative="1" as="geometry">
                        <mxPoint as="offset"/>
                    </mxGeometry>
                </mxCell>
                <mxCell id="195" value="Worker" style="rounded=0;whiteSpace=wrap;html=1;fillColor=#d5e8d4;strokeColor=#82b366;" vertex="1" parent="138">
                    <mxGeometry x="116" y="267" width="120" height="60" as="geometry"/>
                </mxCell>
                <mxCell id="227" style="edgeStyle=none;html=1;exitX=1;exitY=0.5;exitDx=0;exitDy=0;entryX=0;entryY=0.75;entryDx=0;entryDy=0;" edge="1" parent="138" source="196" target="226">
                    <mxGeometry relative="1" as="geometry"/>
                </mxCell>
                <mxCell id="228" value="has many" style="edgeLabel;html=1;align=center;verticalAlign=middle;resizable=0;points=[];" vertex="1" connectable="0" parent="227">
                    <mxGeometry x="-0.6254" y="-1" relative="1" as="geometry">
                        <mxPoint x="21" y="-17" as="offset"/>
                    </mxGeometry>
                </mxCell>
                <mxCell id="196" value="ClientInvoice" style="rounded=0;whiteSpace=wrap;html=1;" vertex="1" parent="138">
                    <mxGeometry x="500" y="108" width="120" height="60" as="geometry"/>
                </mxCell>
                <mxCell id="221" value="" style="edgeStyle=none;html=1;" edge="1" parent="138" source="213" target="220">
                    <mxGeometry relative="1" as="geometry"/>
                </mxCell>
                <mxCell id="225" value="has many" style="edgeLabel;html=1;align=center;verticalAlign=middle;resizable=0;points=[];" vertex="1" connectable="0" parent="221">
                    <mxGeometry x="-0.6287" y="-1" relative="1" as="geometry">
                        <mxPoint x="18" y="-14" as="offset"/>
                    </mxGeometry>
                </mxCell>
                <mxCell id="213" value="WorkerPaiment" style="rounded=0;whiteSpace=wrap;html=1;" vertex="1" parent="138">
                    <mxGeometry x="490.5" y="279" width="120" height="60" as="geometry"/>
                </mxCell>
                <mxCell id="216" value="order" style="rounded=0;whiteSpace=wrap;html=1;fillColor=#d5e8d4;strokeColor=#82b366;" vertex="1" parent="138">
                    <mxGeometry x="928.5" y="174" width="120" height="60" as="geometry"/>
                </mxCell>
                <mxCell id="217" value="- cost&lt;br&gt;- status" style="rounded=1;whiteSpace=wrap;html=1;" vertex="1" parent="138">
                    <mxGeometry x="928.5" y="234" width="120" height="60" as="geometry"/>
                </mxCell>
                <mxCell id="223" style="edgeStyle=none;html=1;exitX=1;exitY=0.5;exitDx=0;exitDy=0;entryX=0;entryY=0.5;entryDx=0;entryDy=0;" edge="1" parent="138" source="220" target="216">
                    <mxGeometry relative="1" as="geometry"/>
                </mxCell>
                <mxCell id="224" value="has one" style="edgeLabel;html=1;align=center;verticalAlign=middle;resizable=0;points=[];" vertex="1" connectable="0" parent="223">
                    <mxGeometry x="0.4902" y="-4" relative="1" as="geometry">
                        <mxPoint as="offset"/>
                    </mxGeometry>
                </mxCell>
                <mxCell id="220" value="PaimentForOrder" style="rounded=0;whiteSpace=wrap;html=1;" vertex="1" parent="138">
                    <mxGeometry x="690.5" y="279" width="120" height="60" as="geometry"/>
                </mxCell>
                <mxCell id="222" value="- cost&lt;br&gt;- penalty" style="rounded=1;whiteSpace=wrap;html=1;" vertex="1" parent="138">
                    <mxGeometry x="690.5" y="339" width="120" height="60" as="geometry"/>
                </mxCell>
                <mxCell id="230" style="edgeStyle=none;html=1;exitX=1;exitY=0.5;exitDx=0;exitDy=0;entryX=0;entryY=0.25;entryDx=0;entryDy=0;" edge="1" parent="138" source="226" target="216">
                    <mxGeometry relative="1" as="geometry"/>
                </mxCell>
                <mxCell id="231" value="has one" style="edgeLabel;html=1;align=center;verticalAlign=middle;resizable=0;points=[];" vertex="1" connectable="0" parent="230">
                    <mxGeometry x="-0.4221" y="7" relative="1" as="geometry">
                        <mxPoint x="-1" as="offset"/>
                    </mxGeometry>
                </mxCell>
                <mxCell id="226" value="InvoiceForTask" style="rounded=0;whiteSpace=wrap;html=1;" vertex="1" parent="138">
                    <mxGeometry x="696" y="89" width="120" height="60" as="geometry"/>
                </mxCell>
                <mxCell id="229" value="- cost" style="rounded=1;whiteSpace=wrap;html=1;" vertex="1" parent="138">
                    <mxGeometry x="696" y="149" width="120" height="60" as="geometry"/>
                </mxCell>
                <mxCell id="140" value="" style="swimlane;startSize=0;" parent="1" vertex="1">
                    <mxGeometry x="-244" y="-1924" width="1096" height="407" as="geometry"/>
                </mxCell>
                <mxCell id="141" value="услуги клиентам" style="text;html=1;align=center;verticalAlign=middle;resizable=0;points=[];autosize=1;strokeColor=none;fillColor=none;" parent="140" vertex="1">
                    <mxGeometry x="600" y="49" width="110" height="26" as="geometry"/>
                </mxCell>
                <mxCell id="151" value="Manager" style="rounded=0;whiteSpace=wrap;html=1;" vertex="1" parent="140">
                    <mxGeometry x="55" y="136" width="120" height="60" as="geometry"/>
                </mxCell>
                <mxCell id="155" value="" style="edgeStyle=none;html=1;" edge="1" parent="140" source="152" target="154">
                    <mxGeometry relative="1" as="geometry"/>
                </mxCell>
                <mxCell id="156" value="has many" style="edgeLabel;html=1;align=center;verticalAlign=middle;resizable=0;points=[];" vertex="1" connectable="0" parent="155">
                    <mxGeometry x="0.2595" y="2" relative="1" as="geometry">
                        <mxPoint as="offset"/>
                    </mxGeometry>
                </mxCell>
                <mxCell id="152" value="Client" style="rounded=0;whiteSpace=wrap;html=1;" vertex="1" parent="140">
                    <mxGeometry x="486" y="282" width="120" height="60" as="geometry"/>
                </mxCell>
                <mxCell id="154" value="Order" style="rounded=0;whiteSpace=wrap;html=1;" vertex="1" parent="140">
                    <mxGeometry x="606" y="120" width="120" height="60" as="geometry"/>
                </mxCell>
                <mxCell id="161" style="edgeStyle=none;html=1;exitX=1;exitY=0.5;exitDx=0;exitDy=0;entryX=0;entryY=0.5;entryDx=0;entryDy=0;" edge="1" parent="140" source="159" target="160">
                    <mxGeometry relative="1" as="geometry"/>
                </mxCell>
                <mxCell id="162" value="has one" style="edgeLabel;html=1;align=center;verticalAlign=middle;resizable=0;points=[];" vertex="1" connectable="0" parent="161">
                    <mxGeometry x="0.5" y="4" relative="1" as="geometry">
                        <mxPoint x="-16" y="-2" as="offset"/>
                    </mxGeometry>
                </mxCell>
                <mxCell id="159" value="- status&lt;br&gt;- cost" style="rounded=1;whiteSpace=wrap;html=1;" vertex="1" parent="140">
                    <mxGeometry x="712" y="120" width="120" height="60" as="geometry"/>
                </mxCell>
                <mxCell id="160" value="OrderType" style="rounded=0;whiteSpace=wrap;html=1;" vertex="1" parent="140">
                    <mxGeometry x="896" y="120" width="120" height="60" as="geometry"/>
                </mxCell>
                <mxCell id="166" style="edgeStyle=none;html=1;exitX=0.5;exitY=0;exitDx=0;exitDy=0;entryX=0;entryY=0.25;entryDx=0;entryDy=0;" edge="1" parent="140" source="163" target="154">
                    <mxGeometry relative="1" as="geometry"/>
                </mxCell>
                <mxCell id="167" value="has many" style="edgeLabel;html=1;align=center;verticalAlign=middle;resizable=0;points=[];" vertex="1" connectable="0" parent="166">
                    <mxGeometry x="-0.2871" y="-7" relative="1" as="geometry">
                        <mxPoint as="offset"/>
                    </mxGeometry>
                </mxCell>
                <mxCell id="163" value="Worker" style="rounded=0;whiteSpace=wrap;html=1;fillColor=#d5e8d4;strokeColor=#82b366;" vertex="1" parent="140">
                    <mxGeometry x="283" y="222" width="120" height="60" as="geometry"/>
                </mxCell>
                <mxCell id="252" value="" style="swimlane;startSize=0;" vertex="1" parent="1">
                    <mxGeometry x="-643" y="-2334" width="770" height="228" as="geometry"/>
                </mxCell>
                <mxCell id="253" value="Producer" style="rounded=0;whiteSpace=wrap;html=1;" vertex="1" parent="252">
                    <mxGeometry x="63" y="17" width="120" height="60" as="geometry"/>
                </mxCell>
                <mxCell id="254" value="Consumer" style="rounded=0;whiteSpace=wrap;html=1;fillColor=#d5e8d4;strokeColor=#82b366;" vertex="1" parent="252">
                    <mxGeometry x="63" y="113" width="120" height="60" as="geometry"/>
                </mxCell>
                <mxCell id="255" value="" style="endArrow=classic;html=1;dashed=1;fillColor=#d5e8d4;strokeColor=#82b366;strokeWidth=3;" edge="1" parent="252">
                    <mxGeometry width="50" height="50" relative="1" as="geometry">
                        <mxPoint x="301" y="51" as="sourcePoint"/>
                        <mxPoint x="521" y="51" as="targetPoint"/>
                    </mxGeometry>
                </mxCell>
                <mxCell id="256" value="Streaming data" style="text;html=1;align=center;verticalAlign=middle;resizable=0;points=[];autosize=1;strokeColor=none;fillColor=none;" vertex="1" parent="252">
                    <mxGeometry x="556" y="43" width="99" height="26" as="geometry"/>
                </mxCell>
                <mxCell id="258" style="edgeStyle=orthogonalEdgeStyle;html=1;exitX=0.5;exitY=0;exitDx=0;exitDy=0;entryX=0;entryY=0.5;entryDx=0;entryDy=0;dashed=1;fillColor=#d5e8d4;strokeColor=#82b366;strokeWidth=3;" edge="1" parent="1" source="151" target="168">
                    <mxGeometry relative="1" as="geometry"/>
                </mxCell>
                <mxCell id="259" style="edgeStyle=orthogonalEdgeStyle;html=1;exitX=0.5;exitY=0;exitDx=0;exitDy=0;entryX=0;entryY=0.75;entryDx=0;entryDy=0;dashed=1;fillColor=#d5e8d4;strokeColor=#82b366;strokeWidth=3;" edge="1" parent="1" source="154" target="169">
                    <mxGeometry relative="1" as="geometry"/>
                </mxCell>
                <mxCell id="260" style="edgeStyle=orthogonalEdgeStyle;html=1;exitX=0.5;exitY=1;exitDx=0;exitDy=0;dashed=1;fillColor=#d5e8d4;strokeColor=#82b366;strokeWidth=3;" edge="1" parent="1" source="152" target="179">
                    <mxGeometry relative="1" as="geometry">
                        <Array as="points">
                            <mxPoint x="302" y="-1236"/>
                            <mxPoint x="565" y="-1236"/>
                        </Array>
                    </mxGeometry>
                </mxCell>
                <mxCell id="262" style="edgeStyle=orthogonalEdgeStyle;html=1;exitX=0.25;exitY=1;exitDx=0;exitDy=0;entryX=0.5;entryY=0;entryDx=0;entryDy=0;dashed=1;fillColor=#d5e8d4;strokeColor=#82b366;strokeWidth=3;" edge="1" parent="1" source="152" target="194">
                    <mxGeometry relative="1" as="geometry">
                        <Array as="points">
                            <mxPoint x="276" y="-1582"/>
                            <mxPoint x="276" y="-1232"/>
                            <mxPoint x="-572" y="-1232"/>
                        </Array>
                    </mxGeometry>
                </mxCell>
                <mxCell id="265" style="edgeStyle=orthogonalEdgeStyle;html=1;exitX=0.75;exitY=0;exitDx=0;exitDy=0;entryX=0.5;entryY=1;entryDx=0;entryDy=0;dashed=1;fillColor=#d5e8d4;strokeColor=#82b366;strokeWidth=3;" edge="1" parent="1" source="154" target="245">
                    <mxGeometry relative="1" as="geometry"/>
                </mxCell>
                <mxCell id="267" style="edgeStyle=orthogonalEdgeStyle;html=1;exitX=0;exitY=0.25;exitDx=0;exitDy=0;entryX=0.5;entryY=0;entryDx=0;entryDy=0;dashed=1;fillColor=#d5e8d4;strokeColor=#82b366;strokeWidth=3;" edge="1" parent="1" source="232" target="195">
                    <mxGeometry relative="1" as="geometry"/>
                </mxCell>
                <mxCell id="269" style="edgeStyle=orthogonalEdgeStyle;html=1;exitX=1;exitY=0.25;exitDx=0;exitDy=0;entryX=0.5;entryY=1;entryDx=0;entryDy=0;dashed=1;fillColor=#d5e8d4;strokeColor=#82b366;strokeWidth=3;" edge="1" parent="1" source="232" target="163">
                    <mxGeometry relative="1" as="geometry">
                        <Array as="points">
                            <mxPoint x="-328" y="-1758"/>
                            <mxPoint x="-328" y="-1598"/>
                            <mxPoint x="99" y="-1598"/>
                        </Array>
                    </mxGeometry>
                </mxCell>
                <mxCell id="270" style="edgeStyle=orthogonalEdgeStyle;html=1;exitX=0.5;exitY=1;exitDx=0;exitDy=0;entryX=0.5;entryY=0;entryDx=0;entryDy=0;dashed=1;fillColor=#d5e8d4;strokeColor=#82b366;strokeWidth=3;" edge="1" parent="1" source="154" target="216">
                    <mxGeometry relative="1" as="geometry"/>
                </mxCell>
            </root>
        </mxGraphModel>
    </diagram>
</mxfile>